<?xml version="1.0" encoding="UTF-8"?>
<svg width="337px" height="397px" viewBox="0 0 337 397" version="1.1" xmlns="http://www.w3.org/2000/svg" xmlns:xlink="http://www.w3.org/1999/xlink">
    <!-- Generator: Sketch 53 (72520) - https://sketchapp.com -->
    <title>Carrot</title>
    <desc>Created with Sketch.</desc>
    <g id="Most-Recent" stroke="none" stroke-width="1" fill="none" fill-rule="evenodd">
        <g id="Carrot" transform="translate(163.993211, 189.017604) scale(-1, 1) rotate(-60.000000) translate(-163.993211, -189.017604) translate(61.493211, -55.482396)">
            <path d="M76.0345187,236.904942 C51.8013454,265.880124 35.3481346,300.398319 26.6748863,340.459527 C13.6650139,400.551339 -6.3408216,482.773769 3.62312575,488.199824 C13.5870731,493.625879 83.8846702,403.59552 99.3568395,365.333803 C114.829009,327.072087 163.825691,275.362568 137.107597,247.625351 C119.295534,229.133873 98.9378414,225.560403 76.0345187,236.904942 Z" id="Path-6" fill="#FFA234"></path>
            <path d="M179.60604,0.638531287 C165.437417,21.6115959 150.989383,35.1571564 136.261938,41.2752128 C114.170769,50.4522973 124.914883,107.609149 130.58841,125.16244 C136.261938,142.715731 121.811943,174.565671 121.811943,192.213776 C121.811943,209.86188 108.280275,244.616206 110.617829,246.56143 C112.955383,248.506653 130.58841,213.121801 130.58841,199.517219 C130.58841,185.912636 144.868448,146.873014 160.379576,135.454461 C166.020697,131.301737 200.793396,101.403108 204.094266,75.0341075 C205.927574,60.3887251 197.764832,35.5901997 179.60604,0.638531287 Z" id="Path-7" fill="#46B64C"></path>
        </g>
    </g>
</svg>