<?xml version="1.0" encoding="UTF-8"?>
<svg width="442px" height="421px" viewBox="0 0 442 421" version="1.1" xmlns="http://www.w3.org/2000/svg" xmlns:xlink="http://www.w3.org/1999/xlink">
    <!-- Generator: Sketch 53 (72520) - https://sketchapp.com -->
    <title>Eggplant</title>
    <desc>Created with Sketch.</desc>
    <g id="Most-Recent" stroke="none" stroke-width="1" fill="none" fill-rule="evenodd">
        <g id="Eggplant" transform="translate(-10.000000, -4.000000)">
            <path d="M371.897051,15.3125936 C290.188511,-9.86398838 221.956644,29.9699082 167.20145,134.814283 C85.0686592,292.080846 -24.1668485,270.174421 16.9544111,385.254011 C58.0756706,500.333602 370.331513,287.778275 399,250.610903 C416.342666,228.126937 448.87496,198.626449 443.995308,134.647464 C439.557154,76.4571265 415.524402,36.6788364 371.897051,15.3125936 Z" id="Path-5" fill="#8821E5" transform="translate(226.244173, 213.533474) scale(-1, 1) rotate(-2.000000) translate(-226.244173, -213.533474) "></path>
            <path d="M338.175619,329.056658 C337.610154,342.647064 341.656514,359.86404 350.314701,380.707585 C362.686636,400.119685 375.353074,411.850125 388.314014,415.898904 C391.50198,416.894771 394.813315,417.144821 396.44116,417.32603 C398.069005,417.507239 402.759749,430.146566 405.481337,430.345776 C405.481337,430.345776 411.829097,431.554696 412.62048,427.166643 C413.411863,422.778589 413.07277,414.895551 416.018013,413.913415 C435.048708,407.567343 455.544486,392.784761 459.158908,387.175739 C465.357344,377.55673 466.458218,360.198213 466.458218,346.487095 C466.458218,340.26999 451.623552,355.49778 421.954221,392.170465 C406.27725,359.14777 397.272651,343.551347 394.940423,345.381196 C392.608196,347.211044 391.71301,358.382382 392.254868,378.89521 C356.767501,332.079102 338.741085,315.466252 338.175619,329.056658 Z" id="Path-4" fill="#46B64C" transform="translate(402.290919, 377.484302) rotate(-60.000000) translate(-402.290919, -377.484302) "></path>
        </g>
    </g>
</svg>