<svg xmlns="http://www.w3.org/2000/svg" xmlns:xlink="http://www.w3.org/1999/xlink" height="40.4854278564452" width="59.724770642201634">
  <g opacity="1">
    <g opacity="1">
      <path fill="rgb(255,255,255)" fill-opacity="1" opacity="1" fill-rule="evenodd" d="M11.03341293334961 10.992553710937386L11.84798812866211 10.992546081542855C11.639297485351562 9.052597045898324 11.13018798828125 7.273376464843636 9.908794403076172 5.753967285156136C10.016380310058594 5.66231536865223 10.08645248413086 5.604103088378793 10.155006408691406 5.54396820068348C11.854331970214844 4.047683715820199 11.347705841064453 1.254245758056527 9.214996337890625 0.5016288757323082C8.68423080444336 0.31433486938465194 8.095809936523438 0.2155303955076988 7.532081604003906 0.2076835632323082C5.717958450317383 0.1827392578123863 3.903289794921875 0.18543243408191756 2.0886611938476562 0.1881256103514488C1.490591049194336 0.1890106201170738 0.8925247192382812 0.18989944457996444 0.29448509216308594 0.18979644775379256C0.2273693084716797 0.18970108032215194 0.16025543212890625 0.1968498229979332 0.09331512451171875 0.2039794921873863C0.06216621398925781 0.20729827880848006 0.031055450439453125 0.21060943603504256 0 0.21318817138660506L0 10.970252990722543L4.866947174072266 10.970252990722543L4.866947174072266 6.838371276855355C5.331642150878906 6.891220092773324 5.665853500366211 7.081398010253793 5.941165924072266 7.401901245117074C6.387239456176758 7.921264648437386 6.545034408569336 8.555938720703011 6.652345657348633 9.199287414550668C6.74945068359375 9.781402587890511 6.780208587646484 10.374519348144418 6.842142105102539 10.981948852538949C6.916486740112305 10.985389709472543 6.994693756103516 10.992134094238168 7.073040008544922 10.992134094238168C8.381980895996094 10.992591857910043 9.69101333618164 10.99257659912098 11.03341293334961 10.992553710937386ZM4.887914657592773 4.286308288574105L4.887914657592773 2.3027343749998863C5.833717346191406 2.259658813476449 6.39055061340332 2.6496582031248863 6.36848258972168 3.3180541992186363C6.346689224243164 3.98397064208973 5.7793731689453125 4.362548828124886 4.887914657592773 4.286308288574105Z"/>
    </g>
    <g opacity="1">
      <path fill="rgb(255,255,255)" fill-opacity="1" opacity="1" fill-rule="evenodd" d="M59.70673217341552 1.533270755238538C58.91348239059034 2.602812039642207 58.13568104728462 3.651573507532115 57.36215561134589 4.694555158908261C56.80408073370536 4.509325801110096 56.26931644783973 4.309646902027526 55.72158650737741 4.156068920376151C55.130821628253734 3.9902432323027566 54.528056622003334 3.922812039642207 53.920463978403106 4.10515148918349C53.253284496656384 4.305380846981657 52.85134920415897 4.800656076339454 52.843211186912114 5.450059746064224C52.833004182229615 6.274371672669728 53.535632315373675 6.8951514891834895 54.357296192315005 6.8047386451467915C54.5479189013855 6.783683599275232 54.57729852297162 6.693408369917434 54.5756433330231 6.535426718541287C54.570677763177564 6.079371672669729 54.573850210578875 5.623316626798169 54.573850210578875 5.142628553403673L59.395970260582075 5.142628553403673L59.395970260582075 10.96716983780734C59.324245362813144 10.97611479193578 59.258589494855435 10.991802865330275 59.19320949188915 10.991252406614679C57.32118966012017 10.97171112221101 55.44834223337694 10.978729470834862 53.577425861573644 10.92079369101835C52.16816955290995 10.877032223128442 50.85932810112276 10.489509287348625 49.794489234245624 9.499509287348625C47.69088074218045 7.543867085513764 47.579155420655766 4.171068920376151 49.52979677497915 1.9549221313853258C50.51973829668603 0.8303349754220238 51.77064810027525 0.23515148918349363 53.24197403200821 0.06712396624771341C55.49965312178087 -0.190490712651369 57.59733051653054 0.29983038826606223 59.55597195560506 1.4275826818440425C59.59486891939514 1.4500138745045923 59.629903773305344 1.4790505717522986 59.70673217341552 1.533270755238538"/>
    </g>
    <g opacity="1">
      <path fill="rgb(255,255,255)" fill-opacity="1" opacity="1" fill-rule="evenodd" d="M40.94931656673086 7.953256993770516L40.94931656673086 10.974862498357675L36.13947250884581 10.974862498357675L36.13947250884581 0.21050470019253012C36.23119761849261 0.20362396624757442 36.33009521791631 0.18972488367876722 36.428992817339996 0.18958726899986747C37.393830624827764 0.1879358928530784 38.35880636481124 0.19550470019252889 39.323644172299005 0.18339460844941047C39.544060300442744 0.1806423148714274 39.67702722630668 0.2495872689998685 39.80585617729932 0.4277982781741807C40.50407047058068 1.39412855340354 41.21621594592869 2.3506881864310625 41.924361378901125 3.3098624983576688C41.98918965188457 3.397523048816384 42.06160421213205 3.479541397440238 42.18436413331349 3.630229470834733L42.18436413331349 0.2124313056971167L46.90965557132862 0.2124313056971167L46.90965557132862 10.992614791935654L46.25626933915285 10.992614791935654C45.33722512024063 10.992614791935654 44.418180901328405 10.985045984596203 43.4994125474076 10.99798176441272C43.26851354958995 11.001146902027397 43.125339619043515 10.934266168082443 42.99388995063238 10.740367085513636C42.41526313113114 9.886605617623728 41.82036027713618 9.043578094687946 41.23056092548247 8.197247819458589C41.16614644998615 8.105045984596202 41.096766404644285 8.016422131385195 41.029731211729484 7.926146902027396C41.00297230756185 7.935229470834736 40.9760754708985 7.944174424963176 40.94931656673086 7.953256993770516"/>
    </g>
    <g opacity="1">
      <path fill="rgb(255,255,255)" fill-opacity="1" opacity="1" fill-rule="evenodd" d="M28.551543848126848 0.8252432323025585C28.131953196178628 1.9423991956053104 27.723673008878592 3.0295551589080643 27.32201358137261 4.0988212139539355C26.882284785050807 3.7195551589080633 26.48297020997188 3.3272157093667794 26.034965463907515 3.00161937909155C25.545305104138883 2.6460230488163208 24.986816429011235 2.4010689203759537 24.35977530351597 2.5249221313851278C24.172049176855374 2.5620780946878807 23.90694292010177 2.7179955258805406 23.8680459563117 2.868683599275037C23.81811439286487 3.0617569937704485 23.905839460136097 3.346894608449348 24.035496006103003 3.5143716726695313C24.172600906838213 3.6914817644126514 24.41798281670537 3.800334975421826 24.634812699960655 3.897766168082376C25.074127698795326 4.09510561762366 25.534822234464965 4.2464817644126525 25.970688920906902 4.45070194789889C26.468211432930968 4.683821213953936 26.983251371910143 4.904004700192468 27.42960092802599 5.216390021293385C29.17279180880231 6.436481764412652 29.150032947010246 8.949325801109902 27.41194556857518 10.183729470834672C26.678972286375043 10.704325801109903 25.837308197555842 10.940472590100729 24.96943693455184 11.044922131385132C22.870104349853666 11.297720296522748 20.797806534314546 11.183224883678708 18.794888764117292 10.429509287348433C18.678887535225623 10.385885434137425 18.56798980867521 10.328637727715407 18.430609042948575 10.26671112221082C18.832958132933108 9.084188186431003 19.229927855584968 7.916940480008983 19.647311587601834 6.689968002944763C19.803451172744957 6.861711122210819 19.92593522893497 7.003454241476874 20.055453842406163 7.138041397440174C20.55283842193452 7.654234057990635 21.079878488040418 8.142215709366782 21.78857565099569 8.338591856155773C22.075199377079972 8.418133140559444 22.414375384029565 8.44703222312825 22.69313695785841 8.369142314871368C22.889828696740118 8.314096443311735 23.113141407293757 8.060334975421828 23.159348793356425 7.8579037827612765C23.19548710723231 7.699509287348434 23.016450727801416 7.439417544229167 22.862518062589643 7.304830388265864C22.67920577579175 7.144646902027331 22.416858168952338 7.077078094687882 22.195062715851506 6.957766168082378C21.439882301842143 6.551940480008984 20.63228753946318 6.216711122210817 19.945107845838585 5.717032223128249C18.252951988474777 4.486344149733752 18.743853740704786 2.0085918561557707 20.107040595801507 1.0198303882658615C20.883324681654422 0.4567111222108155 21.760161556879538 0.17226158092641072 22.693964552832668 0.07262855340347633C24.641847257241842 -0.1350319970552394 26.53897080322993 0.1465276359722826 28.394990465496594 0.7450138745043935C28.436646079200855 0.7583624983576037 28.474025785538117 0.7849221313851263 28.551543848126848 0.8252432323025585"/>
    </g>
    <g opacity="1">
      <path fill="rgb(255,255,255)" fill-opacity="1" opacity="1" fill-rule="evenodd" d="M29.802467444965117 10.966234057990661L34.616725342712876 10.966234057990661L34.616725342712876 0.2077936910181819L29.802467444965117 0.2077936910181819L29.802467444965117 10.966234057990661Z"/>
    </g>
    <g opacity="1">
      <path fill="rgb(255,255,255)" fill-opacity="1" opacity="1" fill-rule="evenodd" d="M12.820080640718672 10.972839562577843L17.624131533783917 10.972839562577843L17.624131533783917 0.21329827817417168L12.820080640718672 0.21329827817417168L12.820080640718672 10.972839562577843Z"/>
    </g>
    <g opacity="1">
      <path fill="rgb(255,255,255)" fill-opacity="1" opacity="1" fill-rule="evenodd" d="M39.23702146610816 13.202003240608237C40.36800926338258 13.202003240608237 41.48256791662922 13.195810580057778 42.59657432974046 13.212324341525667C42.699981295091845 13.213838102993558 42.825201745791055 13.342920671800897 42.89975416406842 13.44282892868163C43.62070366081733 14.407370213085299 44.33267925536619 15.378654616755021 45.0481063507612 16.34746195620456C45.107610225349255 16.428241772718323 45.172222321189636 16.505581222259607 45.29633829161807 16.66273718556236L45.29633829161807 13.221269295654107L50.0058421662061 13.221269295654107L50.0058421662061 24.005030763544L48.96983967221839 24.005030763544C48.187867640509126 24.005030763544 47.405757548766005 23.995948194736663 46.624199697158275 24.010535350699964C46.380247617350676 24.014939020424734 46.22810546005131 23.945581222259598 46.08797452569663 23.73833351583758C45.50370446245623 22.873838102993545 44.89982987440956 22.022553699323822 44.3024441079537 21.166865625929326C44.251499955464155 21.093792231433913 44.195999821857676 21.02388397455318 44.08900329562626 20.88103993785593L44.08900329562626 23.979021589232076L39.23702146610816 23.979021589232076L39.23702146610816 13.202003240608237Z"/>
    </g>
    <g opacity="1">
      <path fill="rgb(255,255,255)" fill-opacity="1" opacity="1" fill-rule="evenodd" d="M37.780115346931325 14.543539937855922C36.97287832902805 15.630420671800874 36.194771978266495 16.678356451617383 35.46498663935138 17.66078764427793C34.63924957691262 17.44376929565408 33.873430569163446 17.20390691033298 33.09021599714955 17.05376929565408C32.73388304979051 16.985512414920137 32.330057450788104 17.04358580941555 31.97082524271827 17.13441149748894C31.206110715239866 17.327760121342152 30.76915070811419 18.042805992901783 30.922535405718182 18.753585809415544C31.082546984946823 19.495328928681598 31.74426872717538 19.908035350699947 32.62868130399911 19.773448194736645L32.62868130399911 18.97459498372747L32.62868130399911 18.16321883693848C32.7547301149014 18.150283057121968 32.853028859000446 18.131429846112795 32.95146566313334 18.131292231433896C34.35443172708631 18.129365625929307 35.757121670971586 18.132530763543986 37.159949674890704 18.127301405745822C37.370905406608884 18.126475717672427 37.50192437872967 18.145879387397198 37.50068183842504 18.4154665433605C37.49074151598806 20.203356451617374 37.4955736171727 21.991383974553152 37.49377883673269 23.779273882810028C37.49377883673269 23.84532892868159 37.47306983165565 23.911246359874248 37.46050636857557 23.986383974553146C37.38195020931664 23.9931270938192 37.31499109290086 24.004686726846725 37.24803197648507 24.004136268131127C35.374281197113916 23.98404452501186 33.499978177607375 23.989411497488923 31.62760799857469 23.932439020424706C30.366843769484102 23.894182139690763 29.174833437249315 23.573402323177 28.159954128440194 22.768769295654067C26.115285027166482 21.147393148865078 25.58292553665254 18.14849406629628 26.93950342923292 15.879503240608212C27.97605816335602 14.145833515837573 29.517498441257505 13.241567460791705 31.52558163356177 13.059640855287117C33.65626213592215 12.866705075470604 35.63121092010314 13.331567460791703 37.48729001514188 14.36092525895684C37.57592455687164 14.410053699323813 37.659450877349066 14.467989479140325 37.780115346931325 14.543539937855922"/>
    </g>
    <g opacity="1">
      <path fill="rgb(255,255,255)" fill-opacity="1" opacity="1" fill-rule="evenodd" d="M17.57170214661152 13.80628305712201C17.144268281821283 14.944494066296322 16.734920281464998 16.034539937855957 16.304172975862436 17.181833515837607C16.2097399127111 17.07174177271834 16.143333036430704 16.99082434152568 16.073198539236444 16.913347277305498C15.452894807161979 16.22898947914036 14.76162821769017 15.658301405745863 13.804872183130627 15.520136268131186C13.692077135477648 15.503897736021093 13.575140286809258 15.504585809415588 13.46137881891935 15.512980304828433C13.183049790683846 15.533484891984397 12.920735726374591 15.616191314002744 12.83638104569409 15.910411497488983C12.746642023693557 16.223347277305496 12.886911018082083 16.49623718556238 13.156818384252922 16.643072047947697C13.578729847689281 16.87233810299357 14.026458537455023 17.054815167213754 14.46493720495302 17.253668378222926C14.987356373029975 17.490778469966045 15.530760666251673 17.68990691033302 16.031642469048503 17.96582434152568C17.558724503429904 18.807062873635772 18.08169591164225 20.212246359874303 17.497287788368 21.847246359874305C17.17188028859068 22.757292231433937 16.459766634007977 23.288072047947693 15.60531308452904 23.63637480024127C14.802632047742723 23.96362250666329 13.953562839583821 24.11362250666329 13.086269706957118 24.150778469966042C11.304328850094198 24.227154616755037 9.54834327959451 24.10894360758072 7.862078026187545 23.463393148865126C7.765712122562356 23.426512414920172 7.66920815890332 23.38935645161742 7.574084795582753 23.349448194736688C7.532666785428661 23.332108745195402 7.494286096019202 23.307750947030264 7.431192660551133 23.27403535069999C7.83267123897814 22.096328928681643 8.232493096998983 20.92371424978256 8.627758973902875 19.76431058005779C9.091778747662561 20.172338102993567 9.508720049880427 20.60087021308531 9.989168967667904 20.93995278189265C10.316509307919084 21.17100782776421 10.723234167632276 21.3075215892321 11.113115703216137 21.425594983727514C11.305571390398821 21.484081222259622 11.56995635521578 21.46343902042476 11.74708737864145 21.372338102993567C11.928084083014834 21.27931058005779 12.125924111517552 21.07165002959907 12.160162999911602 20.88559498372751C12.190122027256395 20.721833515837602 12.045849291886306 20.472475717672467 11.902957156854686 20.344769295654118C11.721684332413606 20.1823839745532 11.46213146878129 20.108760121342193 11.240130934355353 19.989723424094485C10.47375968647079 19.578943607580726 9.656444286096692 19.238622506663294 8.954270953950973 18.73784269014953C7.265244499867069 17.53357663510366 7.712697069565118 14.954264708498158 9.212029037143276 13.956007827764212C10.111904337757867 13.356971130516508 11.112149282979207 13.108026176388067 12.169551082213196 13.043347277305498C14.003954751937968 12.930916084644947 15.78202992785317 13.223622506663297 17.57170214661152 13.80628305712201"/>
    </g>
    <g opacity="1">
      <path fill="rgb(255,255,255)" fill-opacity="1" opacity="1" fill-rule="evenodd" d="M19.932791039458024 23.985888561709032L24.728444375166596 23.985888561709032L24.728444375166596 13.21368672684666L19.932791039458024 13.21368672684666L19.932791039458024 23.985888561709032Z"/>
    </g>
    <g opacity="1">
      <path fill="rgb(255,255,255)" fill-opacity="1" opacity="1" fill-rule="evenodd" d="M43.44873614848386 40.4813466001423L43.44873614848386 26.314938921433413L43.775279746013126 26.314938921433413C45.55540954594771 26.314938921433413 47.33541640025069 26.31774097283265 49.11542325455368 26.311117942252633C49.31176742821868 26.310353746416478 49.43877026566135 26.36741370218277 49.56269946231402 26.541650352826267C50.163165927047814 27.38659621566908 50.780230052047585 28.218423383324556 51.392007514888554 29.054326262106194C51.4523738200041 29.136604680465624 51.51655143969923 29.215571583535045 51.59990857792394 29.323068464487612C52.064888956634675 28.68916801839646 52.51708298965901 28.07348090640036 52.968416403262154 27.4570295985681C53.200906592617514 27.139378862672714 53.42368407707648 26.813067240634233 53.66846882959184 26.506624710335796C53.74186737165696 26.414921209997114 53.87440276252162 26.3237271735492 53.98025895132911 26.323090343685738C55.84977022543681 26.31239160197956 57.7192814995445 26.315703117269567 59.5887927736522 26.3168494110238C59.62702886507975 26.3168494110238 59.665019065244124 26.327166054811904 59.72477064220166 26.335826940955002L59.72477064220166 40.485422311268465L53.79596344956091 40.485422311268465L53.79596344956091 33.63695395958651C53.77346439897813 33.62943936719765 53.75084240276375 33.62192477480878 53.728220406549376 33.61441018241992C53.025954958850896 34.41910839789187 52.32368951115241 35.22393397933651 51.59646610023915 36.05728953866429C50.87686531848509 35.23959999397769 50.169682045522606 34.43592070628729 49.41172222670937 33.57454463296713L49.41172222670937 40.4813466001423L43.44873614848386 40.4813466001423Z"/>
    </g>
    <g opacity="1">
      <path fill="rgb(255,255,255)" fill-opacity="1" opacity="1" fill-rule="evenodd" d="M42.48320770263672 40.48542022705067C42.23130798339844 37.98233032226551 41.63763427734375 35.645431518554574 40.14990997314453 33.63974761962879C40.235206604003906 33.56130218505848 40.28608703613281 33.513549804687386 40.33781433105469 33.46706390380848C41.179901123046875 32.708602905273324 41.627166748046875 31.741035461425668 41.665061950683594 30.544372558593636C41.718833923339844 28.842407226562386 40.79735565185547 27.331848144531136 39.34259033203125 26.733322143554574C38.46983337402344 26.374214172363168 37.56110382080078 26.316139221191293 36.64527893066406 26.31436157226551C34.69994354248047 26.3105010986327 32.754547119140625 26.310951232910043 30.809085845947266 26.311408996581918C30.059581756591797 26.311584472656136 29.310070037841797 26.311752319335824 28.560546875 26.311683654785043L28.276161193847656 26.311683654785043L28.276161193847656 40.484916687011605L34.09039306640625 40.484916687011605L34.09039306640625 35.05543518066395C35.01367950439453 35.174125671386605 35.55225372314453 35.781173706054574 35.83916091918945 36.625473022460824C36.06965255737305 37.30397033691395 36.207393646240234 38.0275421142577 36.32083511352539 38.743469238281136C36.41105651855469 39.3125762939452 36.40239715576172 39.90039825439442 36.43800354003906 40.48542022705067L42.48320770263672 40.48542022705067ZM35.7606086730957 31.016822814941293C35.39201736450195 31.72676849365223 34.76394271850586 31.72689819335926 34.100379943847656 31.737846374511605L34.100379943847656 29.137214660644418C34.64436721801758 28.973442077636605 35.34931182861328 29.200630187988168 35.666053771972656 29.637550354003793C35.93095016479492 30.00289916992176 35.973777770996094 30.606132507324105 35.7606086730957 31.016822814941293Z"/>
    </g>
    <g opacity="1">
      <path fill="rgb(255,255,255)" fill-opacity="1" opacity="1" fill-rule="evenodd" d="M10.666709899902344 38.631713867187386C10.467655181884766 39.23542022705067 10.272895812988281 39.84078216552723 10.069072723388672 40.46698760986317L15.893386840820312 40.46698760986317C16.105079650878906 39.740905761718636 16.32250213623047 39.020797729492074 16.521434783935547 38.29446411132801C16.57236099243164 38.108818054199105 16.643680572509766 38.04401397705067 16.821029663085938 38.045158386230355C18.046001434326172 38.053161621093636 19.270854949951172 38.053161621093636 20.495826721191406 38.045028686523324C20.664230346679688 38.043884277343636 20.72946548461914 38.11377716064442 20.776458740234375 38.279220581054574C20.960006713867188 38.92422485351551 21.16394805908203 39.562370300292855 21.341415405273438 40.209411621093636C21.39794921875 40.415267944335824 21.4757080078125 40.486557006835824 21.677982330322266 40.485412597656136C23.00229263305664 40.478088378906136 24.32666778564453 40.47859954833973 25.65106201171875 40.479110717773324C26.120647430419922 40.479293823242074 26.59023666381836 40.479476928710824 27.05982208251953 40.479309082031136C27.135910034179688 40.479187011718636 27.21200180053711 40.47206878662098 27.31063461303711 40.46710968017567C27.27521514892578 40.35300445556629 27.246826171875 40.254272460937386 27.214149475097656 40.15718841552723C25.686481475830078 35.64175415039051 24.156906127929688 31.127082824706918 22.63555908203125 26.60897827148426C22.55899429321289 26.381523132324105 22.45928955078125 26.312019348144418 22.241985321044922 26.312782287597543C19.859664916992188 26.32167816162098 17.47722625732422 26.323707580566293 15.095024108886719 26.31112670898426C14.822624206542969 26.309730529785043 14.695247650146484 26.393722534179574 14.601264953613281 26.681030273437386C13.296504974365234 30.667213439941293 11.979698181152344 34.64870452880848 10.666709899902344 38.631713867187386ZM18.647216796875 31.480842590331918C18.667133331298828 31.484657287597543 18.686931610107422 31.488464355468636 18.70684814453125 31.492408752441293C19.018848419189453 32.552421569824105 19.330726623535156 33.61257171630848 19.65369415283203 34.70981597900379L17.679977416992188 34.70981597900379C18.007122039794922 33.61765289306629 18.327110290527344 32.549247741699105 18.647216796875 31.480842590331918Z"/>
    </g>
    <g opacity="1">
      <path fill="rgb(255,255,255)" fill-opacity="1" opacity="1" fill-rule="evenodd" d="M9.881279655140393 35.95889171283812L6.123791882873032 35.95889171283812L6.123791882873032 40.485422311268465L2.2737367544323206e-12 40.485422311268465L2.2737367544323206e-12 26.311110384662967L11.172532152469604 26.311110384662967L11.172532152469604 29.771277050449097L6.139877127322353 29.771277050449097L6.139877127322353 32.31570480505408L9.881279655140393 32.31570480505408L9.881279655140393 35.95889171283812Z"/>
    </g>
  </g>
</svg>