<?xml version="1.0" encoding="UTF-8"?>
<svg width="88px" height="90px" viewBox="0 0 88 90" version="1.1" xmlns="http://www.w3.org/2000/svg" xmlns:xlink="http://www.w3.org/1999/xlink">
    <!-- Generator: Sketch 53 (72520) - https://sketchapp.com -->
    <title>Sign</title>
    <desc>Created with Sketch.</desc>
    <g id="Most-Recent" stroke="none" stroke-width="1" fill="none" fill-rule="evenodd">
        <g id="Sign" transform="translate(46.000000, 47.653317) rotate(-8.000000) translate(-46.000000, -47.653317) translate(6.000000, 5.153317)">
            <g id="Group-2" fill="#000000">
                <g id="Group-6">
                    <polygon id="Rectangle" points="0.225854383 0.777777778 79.2258544 0.777777778 79.2258544 59.5118045 0.225854383 61.7777778"></polygon>
                    <polyline id="Path-2" points="32 47 32 84 45.6394725 84 42.7095964 47"></polyline>
                </g>
            </g>
            <g id="Group-15" transform="translate(9.000000, 11.000000)" fill="#FFFFFF">
                <path d="M4.88791385,2.30272947 L4.88791385,4.28630745 C5.77937157,4.36254598 6.34668793,3.983968 6.36848126,3.31805057 C6.39055046,2.64965608 5.83371697,2.25965608 4.88791385,2.30272947 M11.8479876,10.9925613 C10.2177634,10.992546 8.64533297,10.9926836 7.07304045,10.9921331 C6.99469479,10.9921331 6.91648706,10.98539 6.84214145,10.9819497 C6.78020976,10.3745185 6.74945081,9.7813992 6.65234634,9.1992891 C6.54503485,8.55594048 6.38724008,7.92126158 5.94116639,7.40190378 C5.66585313,7.0813992 5.33164269,6.89121571 4.86694811,6.83837167 L4.86694811,10.9702524 L-1.63424829e-12,10.9702524 L-1.63424829e-12,0.213188186 C0.0977941395,0.20506892 0.196140009,0.189656076 0.294485878,0.189793691 C2.70706316,0.190206535 5.12005424,0.174518462 7.53207979,0.207683599 C8.0958099,0.215527636 8.68422993,0.314334975 9.21499417,0.501628553 C11.3477064,1.25424323 11.8543325,4.0476836 10.1550041,5.543968 C10.0864517,5.60410562 10.016382,5.66231663 9.90879463,5.753968 C11.1301869,7.27337167 11.6392957,9.05259186 11.8479876,10.9925613" id="Fill-4"></path>
                <path d="M59.7067322,1.53327076 C58.9134824,2.60281204 58.135681,3.65157351 57.3621556,4.69455516 C56.8040807,4.5093258 56.2693164,4.3096469 55.7215865,4.15606892 C55.1308216,3.99024323 54.5280566,3.92281204 53.920464,4.10515149 C53.2532845,4.30538085 52.8513492,4.80065608 52.8432112,5.45005975 C52.8330042,6.27437167 53.5356323,6.89515149 54.3572962,6.80473865 C54.5479189,6.7836836 54.5772985,6.69340837 54.5756433,6.53542672 C54.5706778,6.07937167 54.5738502,5.62331663 54.5738502,5.14262855 L59.3959703,5.14262855 L59.3959703,10.9671698 C59.3242454,10.9761148 59.2585895,10.9918029 59.1932095,10.9912524 C57.3211897,10.9717111 55.4483422,10.9787295 53.5774259,10.9207937 C52.1681696,10.8770322 50.8593281,10.4895093 49.7944892,9.49950929 C47.6908807,7.54386709 47.5791554,4.17106892 49.5297968,1.95492213 C50.5197383,0.830334975 51.7706481,0.235151489 53.241974,0.0671239662 C55.4996531,-0.190490713 57.5973305,0.299830388 59.555972,1.42758268 C59.5948689,1.45001387 59.6299038,1.47905057 59.7067322,1.53327076" id="Fill-7"></path>
                <path d="M40.9493166,7.95325699 L40.9493166,10.9748625 L36.1394725,10.9748625 L36.1394725,0.2105047 C36.2311976,0.203623966 36.3300952,0.189724884 36.4289928,0.189587269 C37.3938306,0.187935893 38.3588064,0.1955047 39.3236442,0.183394608 C39.5440603,0.180642315 39.6770272,0.249587269 39.8058562,0.427798278 C40.5040705,1.39412855 41.2162159,2.35068819 41.9243614,3.3098625 C41.9891897,3.39752305 42.0616042,3.4795414 42.1843641,3.63022947 L42.1843641,0.212431306 L46.9096556,0.212431306 L46.9096556,10.9926148 L46.2562693,10.9926148 C45.3372251,10.9926148 44.4181809,10.985046 43.4994125,10.9979818 C43.2685135,11.0011469 43.1253396,10.9342662 42.99389,10.7403671 C42.4152631,9.88660562 41.8203603,9.04357809 41.2305609,8.19724782 C41.1661464,8.10504598 41.0967664,8.01642213 41.0297312,7.9261469 C41.0029723,7.93522947 40.9760755,7.94417442 40.9493166,7.95325699" id="Fill-1"></path>
                <path d="M28.5515438,0.825243232 C28.1319532,1.9423992 27.723673,3.02955516 27.3220136,4.09882121 C26.8822848,3.71955516 26.4829702,3.32721571 26.0349655,3.00161938 C25.5453051,2.64602305 24.9868164,2.40106892 24.3597753,2.52492213 C24.1720492,2.56207809 23.9069429,2.71799553 23.868046,2.8686836 C23.8181144,3.06175699 23.9058395,3.34689461 24.035496,3.51437167 C24.1726009,3.69148176 24.4179828,3.80033498 24.6348127,3.89776617 C25.0741277,4.09510562 25.5348222,4.24648176 25.9706889,4.45070195 C26.4682114,4.68382121 26.9832514,4.9040047 27.4296009,5.21639002 C29.1727918,6.43648176 29.1500329,8.9493258 27.4119456,10.1837295 C26.6789723,10.7043258 25.8373082,10.9404726 24.9694369,11.0449221 C22.8701043,11.2977203 20.7978065,11.1832249 18.7948888,10.4295093 C18.6788875,10.3858854 18.5679898,10.3286377 18.430609,10.2667111 C18.8329581,9.08418819 19.2299279,7.91694048 19.6473116,6.689968 C19.8034512,6.86171112 19.9259352,7.00345424 20.0554538,7.1380414 C20.5528384,7.65423406 21.0798785,8.14221571 21.7885757,8.33859186 C22.0751994,8.41813314 22.4143754,8.44703222 22.693137,8.36914231 C22.8898287,8.31409644 23.1131414,8.06033498 23.1593488,7.85790378 C23.1954871,7.69950929 23.0164507,7.43941754 22.8625181,7.30483039 C22.6792058,7.1446469 22.4168582,7.07707809 22.1950627,6.95776617 C21.4398823,6.55194048 20.6322875,6.21671112 19.9451078,5.71703222 C18.252952,4.48634415 18.7438537,2.00859186 20.1070406,1.01983039 C20.8833247,0.456711122 21.7601616,0.172261581 22.6939646,0.0726285534 C24.6418473,-0.135031997 26.5389708,0.146527636 28.3949905,0.745013875 C28.4366461,0.758362498 28.4740258,0.784922131 28.5515438,0.825243232" id="Fill-9"></path>
                <polygon id="Fill-11" points="29.8024674 10.9662341 34.6167253 10.9662341 34.6167253 0.207793691 29.8024674 0.207793691"></polygon>
                <polygon id="Fill-13" points="12.8200806 10.9728396 17.6241315 10.9728396 17.6241315 0.213298278 12.8200806 0.213298278"></polygon>
                <path d="M39.2370215,13.2020032 C40.3680093,13.2020032 41.4825679,13.1958106 42.5965743,13.2123243 C42.6999813,13.2138381 42.8252017,13.3429207 42.8997542,13.4428289 C43.6207037,14.4073702 44.3326793,15.3786546 45.0481064,16.347462 C45.1076102,16.4282418 45.1722223,16.5055812 45.2963383,16.6627372 L45.2963383,13.2212693 L50.0058422,13.2212693 L50.0058422,24.0050308 L48.9698397,24.0050308 C48.1878676,24.0050308 47.4057575,23.9959482 46.6241997,24.0105354 C46.3802476,24.014939 46.2281055,23.9455812 46.0879745,23.7383335 C45.5037045,22.8738381 44.8998299,22.0225537 44.3024441,21.1668656 C44.2515,21.0937922 44.1959998,21.023884 44.0890033,20.8810399 L44.0890033,23.9790216 L39.2370215,23.9790216 L39.2370215,13.2020032 Z" id="Fill-1"></path>
                <path d="M37.7801153,14.5435399 C36.9728783,15.6304207 36.194772,16.6783565 35.4649866,17.6607876 C34.6392496,17.4437693 33.8734306,17.2039069 33.090216,17.0537693 C32.733883,16.9855124 32.3300575,17.0435858 31.9708252,17.1344115 C31.2061107,17.3277601 30.7691507,18.042806 30.9225354,18.7535858 C31.082547,19.4953289 31.7442687,19.9080354 32.6286813,19.7734482 L32.6286813,18.974595 L32.6286813,18.1632188 C32.7547301,18.1502831 32.8530289,18.1314298 32.9514657,18.1312922 C34.3544317,18.1293656 35.7571217,18.1325308 37.1599497,18.1273014 C37.3709054,18.1264757 37.5019244,18.1458794 37.5006818,18.4154665 C37.4907415,20.2033565 37.4955736,21.991384 37.4937788,23.7792739 C37.4937788,23.8453289 37.4730698,23.9112464 37.4605064,23.986384 C37.3819502,23.9931271 37.3149911,24.0046867 37.248032,24.0041363 C35.3742812,23.9840445 33.4999782,23.9894115 31.627608,23.932439 C30.3668438,23.8941821 29.1748334,23.5734023 28.1599541,22.7687693 C26.115285,21.1473931 25.5829255,18.1484941 26.9395034,15.8795032 C27.9760582,14.1458335 29.5174984,13.2415675 31.5255816,13.0596409 C33.6562621,12.8667051 35.6312109,13.3315675 37.48729,14.3609253 C37.5759246,14.4100537 37.6594509,14.4679895 37.7801153,14.5435399" id="Fill-4"></path>
                <path d="M17.5717021,13.8062831 C17.1442683,14.9444941 16.7349203,16.0345399 16.304173,17.1818335 C16.2097399,17.0717418 16.143333,16.9908243 16.0731985,16.9133473 C15.4528948,16.2289895 14.7616282,15.6583014 13.8048722,15.5201363 C13.6920771,15.5038977 13.5751403,15.5045858 13.4613788,15.5129803 C13.1830498,15.5334849 12.9207357,15.6161913 12.836381,15.9104115 C12.746642,16.2233473 12.886911,16.4962372 13.1568184,16.643072 C13.5787298,16.8723381 14.0264585,17.0548152 14.4649372,17.2536684 C14.9873564,17.4907785 15.5307607,17.6899069 16.0316425,17.9658243 C17.5587245,18.8070629 18.0816959,20.2122464 17.4972878,21.8472464 C17.1718803,22.7572922 16.4597666,23.288072 15.6053131,23.6363748 C14.802632,23.9636225 13.9535628,24.1136225 13.0862697,24.1507785 C11.3043289,24.2271546 9.54834328,24.1089436 7.86207803,23.4633931 C7.76571212,23.4265124 7.66920816,23.3893565 7.5740848,23.3494482 C7.53266679,23.3321087 7.4942861,23.3077509 7.43119266,23.2740354 C7.83267124,22.0963289 8.2324931,20.9237142 8.62775897,19.7643106 C9.09177875,20.1723381 9.50872005,20.6008702 9.98916897,20.9399528 C10.3165093,21.1710078 10.7232342,21.3075216 11.1131157,21.425595 C11.3055714,21.4840812 11.5699564,21.463439 11.7470874,21.3723381 C11.9280841,21.2793106 12.1259241,21.07165 12.160163,20.885595 C12.190122,20.7218335 12.0458493,20.4724757 11.9029572,20.3447693 C11.7216843,20.182384 11.4621315,20.1087601 11.2401309,19.9897234 C10.4737597,19.5789436 9.65644429,19.2386225 8.95427095,18.7378427 C7.2652445,17.5335766 7.71269707,14.9542647 9.21202904,13.9560078 C10.1119043,13.3569711 11.1121493,13.1080262 12.1695511,13.0433473 C14.0039548,12.9309161 15.7820299,13.2236225 17.5717021,13.8062831" id="Fill-6"></path>
                <polygon id="Fill-8" points="19.932791 23.9858886 24.7284444 23.9858886 24.7284444 13.2136867 19.932791 13.2136867"></polygon>
                <path d="M43.4487361,40.4813466 L43.4487361,26.3149389 L43.7752797,26.3149389 C45.5554095,26.3149389 47.3354164,26.317741 49.1154233,26.3111179 C49.3117674,26.3103537 49.4387703,26.3674137 49.5626995,26.5416504 C50.1631659,27.3865962 50.7802301,28.2184234 51.3920075,29.0543263 C51.4523738,29.1366047 51.5165514,29.2155716 51.5999086,29.3230685 C52.064889,28.689168 52.517083,28.0734809 52.9684164,27.4570296 C53.2009066,27.1393789 53.4236841,26.8130672 53.6684688,26.5066247 C53.7418674,26.4149212 53.8744028,26.3237272 53.980259,26.3230903 C55.8497702,26.3123916 57.7192815,26.3157031 59.5887928,26.3168494 C59.6270289,26.3168494 59.6650191,26.3271661 59.7247706,26.3358269 L59.7247706,40.4854223 L53.7959634,40.4854223 L53.7959634,33.636954 C53.7734644,33.6294394 53.7508424,33.6219248 53.7282204,33.6144102 C53.025955,34.4191084 52.3236895,35.223934 51.5964661,36.0572895 C50.8768653,35.2396 50.169682,34.4359207 49.4117222,33.5745446 L49.4117222,40.4813466 L43.4487361,40.4813466 Z" id="Fill-1"></path>
                <path d="M34.1003784,31.7378491 C34.763941,31.7268975 35.3920157,31.7267701 35.7606081,31.0168225 C35.9737757,30.6061354 35.9309497,30.0029027 35.666054,29.6375503 C35.34931,29.2006301 34.644365,28.9734469 34.1003784,29.1372124 L34.1003784,31.7378491 Z M40.149913,33.6397446 C41.6376356,35.6454262 42.2313051,37.9823317 42.4832087,40.4854223 L36.4380048,40.4854223 C36.4023967,39.9004 36.4110581,39.3125761 36.3208348,38.743472 C36.207394,38.0275392 36.069653,37.3039657 35.8391625,36.6254722 C35.5522523,35.7811758 35.0136792,35.1741229 34.0903937,35.0554374 L34.0903937,40.4849129 L28.2761616,40.4849129 L28.2761616,26.3116846 L28.5605456,26.3116846 C31.2555766,26.3119393 33.9504874,26.3090104 36.6452779,26.3143589 C37.5611049,26.3161417 38.4698343,26.3742109 39.3425946,26.7333234 C40.7973556,27.3318443 41.7188366,28.842409 41.6650635,30.5443731 C41.6271697,31.7410328 41.1799026,32.708599 40.3378181,33.467065 C40.2860901,33.5135459 40.2352041,33.5613002 40.149913,33.6397446 L40.149913,33.6397446 Z" id="Fill-3"></path>
                <path d="M18.7068484,31.4924082 C18.6869312,31.488469 18.6671332,31.4846569 18.6472159,31.4808448 C18.3271083,32.5492497 18.00712,33.6176546 17.6799758,34.7098215 L19.6536942,34.7098215 C19.3307243,33.6125718 19.018846,32.5524264 18.7068484,31.4924082 L18.7068484,31.4924082 Z M10.0690722,40.4669836 C10.2728963,39.8407825 10.4676562,39.2354209 10.6667097,38.6317111 C11.9796994,34.6487008 13.2965056,30.6672154 14.601266,26.6810284 C14.6952469,26.393723 14.822622,26.3097297 15.0950236,26.3111275 C17.4772251,26.3237074 19.8596651,26.3216743 22.2419858,26.3127794 C22.4592869,26.312017 22.5589925,26.3815243 22.6355607,26.6089796 C24.1569066,31.1270818 25.6864818,35.6417532 27.2141487,40.1571869 C27.2468273,40.2542684 27.2752124,40.3530018 27.3106342,40.4671107 C27.2120019,40.4720664 27.1359108,40.4791824 27.0598196,40.4793094 C25.2658337,40.4799448 23.4718478,40.4754973 21.6779811,40.4854088 C21.4757075,40.4865524 21.3979466,40.4152661 21.3414149,40.2094127 C21.1639484,39.5623721 20.9600051,38.9242263 20.7764561,38.2792188 C20.7294656,38.1137736 20.6642276,38.0438851 20.4958252,38.0450288 C19.2708532,38.0531612 18.0460004,38.0531612 16.8210284,38.0451558 C16.6436812,38.0440122 16.5723606,38.1088179 16.5214344,38.2944672 C16.3225002,39.0207996 16.1050799,39.7409055 15.8933843,40.4669836 L10.0690722,40.4669836 Z" id="Fill-5"></path>
                <polygon id="Fill-7" points="9.88127966 35.9588917 6.12379188 35.9588917 6.12379188 40.4854223 2.27373675e-12 40.4854223 2.27373675e-12 26.3111104 11.1725322 26.3111104 11.1725322 29.7712771 6.13987713 29.7712771 6.13987713 32.3157048 9.88127966 32.3157048"></polygon>
            </g>
        </g>
    </g>
</svg>