<?xml version="1.0" encoding="UTF-8"?>
<svg width="233px" height="233px" viewBox="0 0 233 233" version="1.1" xmlns="http://www.w3.org/2000/svg" xmlns:xlink="http://www.w3.org/1999/xlink">
    <!-- Generator: Sketch 53 (72520) - https://sketchapp.com -->
    <title>Tomato</title>
    <desc>Created with Sketch.</desc>
    <g id="Most-Recent" stroke="none" stroke-width="1" fill="none" fill-rule="evenodd">
        <g id="Tomato">
            <g id="Group-3">
                <path d="M142.831259,8.009375 C107.445072,8.009375 4.03117499e-15,47.7859822 0,116.314441 C0,184.8429 43.4090097,233 86.6822211,233 C129.955432,233 217.641847,209.323192 231.203812,132.021382 C244.765777,54.7195721 178.217446,8.009375 142.831259,8.009375 Z" id="Path-3" fill="#ED3329"></path>
                <path d="M40.775,14.6789837 C40.775,16.39082 48.0380481,28.4874088 62.5641442,50.96875 C93.7933539,46.9922497 112.427452,40.3182151 118.46644,30.9466461 C122.979676,23.9428051 123.78125,11.3036345 123.78125,1.32022703 C123.78125,-3.20660235 116.724107,3.90785256 102.609821,22.6635918 C95.2523817,7.10232333 90.7245852,-0.0121315825 89.0264318,1.32022703 C87.3282784,2.65258564 84.2151458,12.4982785 79.6870341,30.8573056 C53.745678,18.3599213 40.775,12.9671474 40.775,14.6789837 Z" id="Path-4" fill="#46B64C"></path>
            </g>
        </g>
    </g>
</svg>